<?xml version="1.0" encoding="utf-8"?>
<!-- Generator: Adobe Illustrator 27.7.0, SVG Export Plug-In . SVG Version: 6.00 Build 0)  -->
<svg version="1.1" id="Layer_1" xmlns="http://www.w3.org/2000/svg" xmlns:xlink="http://www.w3.org/1999/xlink" x="0px" y="0px"
	 viewBox="0 0 500 500" style="enable-background:new 0 0 500 500;" xml:space="preserve">
<style type="text/css">
	.st0{fill:#E4CB8C;}
	.st1{fill:#D5AF71;}
	.st2{fill:#C59952;}
</style>
<path class="st0" d="M281.18,5.1c-2.91,17.88-0.84,33.5,6.23,46.87l-24.76,0.9c-0.7,0.02-1.28,0.3-1.71,0.85l-0.48,0.6
	c-2.65-0.21-4.45-0.69-5.44-1.47c4.88-1.06,6.16-4.19,3.83-9.38c-0.31-0.71-0.82-1.27-1.47-1.71c-2.09-1.41-2.69-3.13-1.78-5.18
	l4.74-0.14c0.79-0.02,1.2-0.9,0.72-1.5C248.29,19.3,261.43,2.25,281.18,5.1z"/>
<path class="st1" d="M281.18,5.1c14.22,7.21,17.18,16.54,8.88,27.97c-1.9,2.6-1.2,3.71,2.09,3.27c4.88-0.65,9.82-0.6,14.75,0.12
	c0.65,0.09,1.13,0.62,1.13,1.27v12.81c0,0.9-0.46,1.38-1.37,1.5l-9.43,1.18c-0.91,0.12-1.28,1.18-0.63,1.77
	c22.67,21.15,42.03,46.43,50.58,75.83c5.82,20.81,1.95,60.6-29.35,59.47c-1.18-0.05-1.52-1.57-0.46-2.05c2-0.94,3.95-2.49,5.82-4.65
	l9.99-11.36c0.65-0.71,1.3-0.71,1.95-0.02l1.97,2.05c0.46,0.48,0.72,0.39,0.75-0.25c0.96-13.96,0-26.52-2.89-37.67
	c-8.11-31.31-23.94-59.42-47.54-84.35C280.34,38.61,278.27,22.98,281.18,5.1z"/>
<path class="st1" d="M246.68,35.77l8.93,0.81c-0.91,2.05-0.31,3.78,1.78,5.18c0.65,0.44,1.15,0.99,1.47,1.71
	c2.33,5.18,1.06,8.32-3.83,9.38l-10.18,0.37c-0.6,0.02-1.13-0.37-1.25-0.94C241.65,41.83,242.68,36.35,246.68,35.77z"/>
<path class="st1" d="M255.03,52.85c0.99,0.78,2.79,1.27,5.44,1.47c-9.34,14.49-17.01,29.47-23,44.93
	c-6.91,15.67-14.8,44.61-9.53,61.08c0.24,0.78,0.77,1.29,1.59,1.54c4.64,1.41,8.06,4.17,10.25,8.25l-8.93-4.03
	c-0.89-0.39-1.37-0.14-1.44,0.81c-0.05,0.67,0.07,1.29,0.38,1.87c-2.19,6.18-0.96,12.26,3.73,18.25c0.58,0.74,0.67,1.52,0.26,2.33
	l-3.13,6.45c-0.31,0.62-0.36,1.27-0.17,1.94c0.96,3.25,0.58,6.36-1.13,9.29c-0.43,0.69-0.36,1.54,0.14,2.19
	c2.19,2.81,1.73,5.41-1.32,7.79c-59.31-42.83-8.85-122.35,26.25-160.95c0.51-0.53,0.7-1.18,0.6-1.89
	C255,53.81,255,53.38,255.03,52.85z"/>
<path class="st0" d="M253.05,145.24c1.4,1.36,11.84,12.79,8.35,14.26c-1.47-1.98-3.42-3.48-5.82-4.52c-0.75-0.32-1.4-0.18-1.9,0.44
	c-12.87,15.55-6.06,24.42,1.92,39.06c0.31,0.62,0.12,0.99-0.58,1.11c-0.29,0.05-0.63-0.05-0.99-0.28
	c-7.72-6.04-11.86-13.85-12.42-23.43C241.65,162.59,245.48,153.72,253.05,145.24z"/>
<path class="st0" d="M297.06,145.22c6.18,7.35,10.03,15.32,11.5,23.89c0.46,9.79-3.3,17.93-11.26,24.4
	c-0.94,0.76-2.29-0.23-1.76-1.29c2.33-4.7,6.69-9.84,7.53-14.63c1.37-8.02-1.15-15.48-7.6-22.37c-0.7-0.74-1.9-0.71-2.55,0.07
	c-1.18,1.45-2.86,2.44-5,2.93C289.6,152.94,292.66,148.61,297.06,145.22z"/>
<path class="st0" d="M298.82,223.86c-0.17-0.83-2.7-1.06-5.64-0.53c-2.95,0.53-5.22,1.63-5.05,2.46c0.17,0.83,2.7,1.06,5.64,0.53
	C296.73,225.8,298.99,224.69,298.82,223.86z M264.39,172.29c-5.44,9.63-5.27,19.45,0.48,29.42c2.45,4.29,7.51,5.71,12.08,5.18
	c2.5,0.81,4.11,0.71,4.81-0.28c12.15-17.26,9.96-32.17-6.57-44.7c-0.63-0.46-1.18-0.41-1.68,0.16L264.39,172.29 M286.26,160.03
	c4.84,5.81,7.84,10.92,9.07,15.37c3.03,10.99-3.73,16.96-7.89,25.94c-0.41,0.9,0.77,1.68,1.52,1.01c3.34-3.02,7.31-5.28,11.91-6.82
	c3.15-0.58,0.89,5.51,0.51,7.26c-3.73,0.16-7.05,1.15-9.99,2.97c-0.94,0.6-0.89,1.11,0.14,1.52c2.48,1.01,5.44,0.78,8.88-0.71
	l2.24,11.24c-0.94,2.12,1.92,3.02,8.64,2.72c-2.09,14.03-21.63,15-30.75,7.33c-0.51-0.41-1.08-0.6-1.73-0.58l-7.84,0.3
	c-0.75,0.02-1.47,0.25-2.07,0.67c-22.86,15.48-26.32-8.76-35.3-7.3c-0.79-1.18-1.64-1.94-2.5-2.3l-2.91-1.66
	c3.06-2.37,3.51-4.98,1.32-7.79c-0.51-0.65-0.58-1.5-0.14-2.19c1.71-2.93,2.09-6.04,1.13-9.29c-0.19-0.67-0.14-1.31,0.17-1.94
	l3.13-6.45c0.41-0.81,0.31-1.59-0.26-2.33c-4.69-5.99-5.92-12.07-3.73-18.25c5.41,13.04,13.19,22.53,23.27,28.46
	c1.78,0.53,8.83,6.04,9.36,5.76c0.55-0.3,0.65-0.69,0.26-1.18c-11.62-14.59-11.36-28.23,0.75-40.92l9.7-8.62
	c0.63-0.55,1.54-0.67,2.29-0.32C279.59,153.84,283.2,156.53,286.26,160.03"/>
<path class="st1" d="M329.33,159.25c1.3,10.55-1.2,18.39-7.48,23.53c-5.61,5.85-11.53,8.69-17.73,8.48
	c10.92-5.62,17.47-13.18,19.63-22.7c0.63-2.72-0.46-3.71-3.25-2.95l-10.54,2.83C316.24,163.21,322.69,160.15,329.33,159.25z"/>
<path class="st1" d="M328.65,197.92l-16.29,16.27c-0.58,0.58,0.1,1.5,0.87,1.18c7.84-3.32,13.62-8.73,17.3-16.22
	c0.24-0.48,0.07-1.06-0.38-1.36C329.66,197.45,329.04,197.52,328.65,197.92z M333.15,205.82c-7.15,9.52-17.3,13.53-30.51,12
	l-2.24-11.24l6.62-1.71c1.4-0.35,1.47-0.88,0.24-1.59c-1.37-0.76-3.32-0.92-5.89-0.48c0.38-1.75,2.65-7.83-0.51-7.26
	c-0.05-0.39,0.14-0.6,0.55-0.6c7.24-0.25,35.06-3.09,37.27-10.55c0.24-0.81,0.72-0.97,1.44-0.53
	C343.86,186.21,335.22,202.87,333.15,205.82"/>
<path class="st2" d="M301.37,202.8c2.57-0.44,4.52-0.28,5.89,0.48c1.23,0.71,1.15,1.24-0.24,1.59l-6.62,1.71
	c-3.44,1.5-6.4,1.73-8.88,0.71c-1.03-0.41-1.08-0.92-0.14-1.52C294.32,203.95,297.64,202.96,301.37,202.8z"/>
<path class="st1" d="M231.09,218.65c0.87,0.37,1.71,1.13,2.5,2.3c-12.97,3.06-23.24-0.07-30.82-9.4c-0.41-0.53-0.38-1.06,0.1-1.54
	c2.77-2.81,6.16-4.19,10.18-4.17c0.75,0,0.99,0.99,0.29,1.29C197.07,214.14,227.94,218.7,231.09,218.65z"/>
<path class="st1" d="M341.77,216.42c-1.11,0.46-1.9,1.2-2.41,2.21c-7.17,3.55-15.28,4.33-24.35,2.35
	c7.53-2.65,18.43-3.06,26.27-9.15c0.75-0.58,0.77-1.2,0.12-1.87c-1.37-1.38-3.42-2.44-6.18-3.16c4.88-1.31,8.97-0.21,12.27,3.36
	c0.48,0.51,0.46,0.99-0.07,1.45L341.77,216.42z"/>
<path class="st0" d="M294.22,250.31l10.27,15.58c-0.31,1.29-1.73,1.66-4.26,1.11c-0.96-0.21-1.42,0.18-1.4,1.13
	c0.51,10.48,5.8,16.36,3.25,28.76c-3.3-7.77-8.23-16.15-14.75-25.12c-3.06-4.19-3.66-9.1-1.83-14.72
	C289.03,246.23,291.94,244,294.22,250.31z"/>
<path class="st0" d="M467.17,269.9l-4.64,17.07c-0.94-9.63-5.34-15.18-13.26-16.68c-0.79-0.14-1.08-0.58-0.91-1.34l4.31-17.35
	c0.12-1.04,0.48-1.96,1.08-2.74c0.46-0.58,1.25-0.81,1.95-0.58C466.04,251.65,469.87,258.86,467.17,269.9z"/>
<path class="st0" d="M363.76,268.79c-0.7,1.45-2.29,2.4-4.76,2.79c-0.75,0.12-1.23-0.16-1.49-0.85l-4.02-10.65l2.98-8.76
	C359.62,256.69,362.05,262.52,363.76,268.79z"/>
<path class="st2" d="M353.48,260.08l4.02,10.65c0.26,0.69,0.75,0.97,1.49,0.85c2.48-0.39,4.07-1.34,4.76-2.79
	c8.37,24.77,7.75,50.3-1.88,76.61c-0.02-4.72,0.17-9.26,0.55-13.62c1.68-18.94-1.68-37-9.22-54.52
	C350.48,270.93,350.93,265.96,353.48,260.08z"/>
<path class="st0" d="M487.14,292.89c-1.11,5.58-2.43,8.04-3.99,7.42c0.6-8.11-3.3-13.23-11.69-15.37c-0.91-0.23-1.28-0.78-1.06-1.66
	l3.46-14.4c0.17-1.77,0.75-3.34,1.73-4.72c0.46-0.67,1.11-0.92,1.92-0.78c8.71,1.47,12.78,6.71,12.17,15.69
	C489.48,282.29,488.63,286.9,487.14,292.89z"/>
<path class="st2" d="M304.5,265.89c14.89,31.73,16.58,64.22,12.63,99.22c-2.41,21.29-7.17,46.11-18.91,64.93l-1.83-12.35
	c13.07-10.99,13.16-25.83,14.97-41.43c2.07-25.46,0.6-55.25-9.26-79.38c2.55-12.4-2.74-18.27-3.25-28.76
	c-0.02-0.94,0.43-1.34,1.4-1.13C302.76,267.55,304.18,267.18,304.5,265.89z"/>
<path class="st1" d="M265.66,270.43c10.27,12.17,19.15,22.51,22.95,36.96c7.82,29.75,7.31,59.19-1.49,88.34
	c-4.04,13.34-13.88,18.29-27.93,14.22l-0.63-17.79c-0.02-0.99,0.41-1.27,1.35-0.83c8.78,4.24,14.1,3.57,15.93-2.03l7.63-2.72
	c0.72-0.25,1.13-0.76,1.23-1.5c4.09-33.11-3.42-63.25-22.52-90.46c-0.51-0.71-0.72-1.52-0.63-2.37l2.21-22.49
	C263.11,271.16,263.76,271.37,265.66,270.43z"/>
<path class="st0" d="M97.07,329.62c-11.91,5.97-26.56-1.31-22.95-14.84c1.92-7.17,6.16-15.85,12.7-26.01l4.28-4.52
	c0.72-0.76,1.15-0.65,1.32,0.39c1.18,7.79,3.8,14.95,7.92,21.52C106.31,315.7,105.23,323.51,97.07,329.62z"/>
<path class="st1" d="M425.64,321.46c-20.43-14.42-43.57,14.19-50.58,29.38c-0.53,1.15,0.58,2.35,1.83,2
	c15.52-4.24,39.84-12.12,49.73-25.51C428.03,325.45,427.59,322.82,425.64,321.46z M429.93,297.66c11,8.29,3.2,30.92-2.29,41.43
	c-1.78,3.39-2.6,6.5-2.48,9.35c0.51,11.13,4.43,20.3,11.77,27.51c14.05,8.34,33.13-0.39,48.55-6.57c0.67-0.28,0.96-0.76,0.89-1.47
	l-1.76-14.47c-0.14-1.22-0.63-1.36-1.47-0.44c-5.1,5.74-11.57,9.42-19.39,11.11c0.55-1.06,1.56-2.05,3.03-2.97
	c0.84-0.53,0.91-1.15,0.26-1.87l-3.03-3.23c-0.48-0.51-0.6-1.22-0.34-1.82c1.56-3.5,2.14-7.3,1.73-11.38
	c4.64-0.32,8.71-1.43,12.15-3.34c0.7-0.37,0.96-0.92,0.82-1.68c-1.54-7.86-5.32-12.42-11.33-13.66c1.25-0.46,1.11-2.79-0.41-6.96
	c-0.31-0.81-0.29-1.59,0.07-2.35l5.49-12.33c2.72-0.18,5.51,0.69,8.37,2.6c12.92,26.45,20.36,58.89,2.41,84.45l-7.8,3.87
	c-19.39,5.14-42.01,19.15-53.39-9.06c-4.14-10.25-4.02-20.55,0.36-30.92c2.33-5.55,1.25-6.24-3.25-2.1
	c-13.4,12.33-30.97,20.28-52.65,23.85c2.79-5.67,1.2-16.13,6.83-18.32c1.92-0.76,2.62-3.02,1.4-4.63c-0.48-0.65-1.47-0.35-2.96,0.88
	c5.08-20.53,15.37-37.77,30.87-51.68C412.94,294.94,422.11,293.68,429.93,297.66"/>
<path class="st0" d="M472.2,302.52l-5.49,12.33c-0.36,0.76-0.38,1.54-0.07,2.35c1.52,4.17,1.66,6.5,0.41,6.96
	c-10.76,0.83-18.5,7.51-12.42,17.47c0.41,0.67,1.01,0.99,1.83,1.01l8.95,0.21c0.41,4.08-0.17,7.88-1.73,11.38
	c-0.26,0.6-0.14,1.31,0.34,1.82l3.03,3.23c0.65,0.71,0.58,1.34-0.26,1.87c-1.47,0.92-2.48,1.91-3.03,2.97
	c-5.56,1.52-10.59,1.2-15.06-0.97c-0.77-0.37-1.23-0.97-1.35-1.8c-2.36-15-0.17-29.52,6.59-43.55
	C457.14,308.49,463.23,303.4,472.2,302.52z"/>
<path class="st0" d="M246.99,330.38c-1.37,1.2-2.77,1.8-4.16,1.77c-0.89-0.02-1.44,0.39-1.66,1.22c-0.53,1.94-1.8,2.86-3.85,2.74
	c-0.75-0.05-1.32-0.37-1.73-0.94l-2.98-4.15l1.13-3.06l1.01-2.67c0.26-0.71,0.82-1.01,1.61-0.88
	C240.35,325.13,243.89,327.11,246.99,330.38z"/>
<path class="st2" d="M50.27,415.06c-3.25,9.77-2.48,17.26,2.29,22.47c-26.78-0.39-47.74-23.85-45.21-48.99
	c1.8-18.36,6.64-37,14.48-55.97l3.51-6.41c0.22-0.39,0.72-0.58,1.15-0.44c0.43,0.16,0.7,0.6,0.6,1.04
	c-2.69,12.14-10.11,23.27-11.74,34.42C11.44,387.87,23.08,405.82,50.27,415.06z"/>
<path class="st2" d="M167.95,347.85l-7.7,0.53c-5.39,0.35-5.77,1.87-1.15,4.56c20.5,11.96,7.72,49.35-6.79,61.15l-3.83,3.02
	c-6.64,4.31-13.83,7.81-21.56,10.51l-1.78-12.93c-0.12-0.9,0.19-1.59,0.96-2.12l4.19-2.79c0.7-0.46,0.99-1.08,0.91-1.89
	c-0.07-0.71-0.48-1.04-1.23-1.01l13.96-6.11c6.52-2.74,12.39-6.38,17.56-10.92c0.65-0.55,0.96-1.24,0.99-2.05
	c0.36-11.36-21.99-14.01-17.49-31.52c2.84-11.08,4.4-21.68,13.91-27.81l2.86-1.11c5.7-1.57,11.43-2.05,17.16-1.43
	c0.91,0.09,1.49,0.94,1.25,1.77l-5.44,18.53c-0.24,0.85-0.82,1.29-1.76,1.34L167.95,347.85z"/>
<path class="st1" d="M246.99,330.38c2.62,10.21,1.64,20.32-2.91,30.35c-0.46,0.99-1.06,1.15-1.85,0.48
	c0.77-7.58-3.22-12.77-11.98-15.55c-0.79-0.25-1.08-0.76-0.89-1.54l3.25-13.09l2.98,4.15c0.41,0.58,0.99,0.9,1.73,0.94
	c2.05,0.12,3.32-0.81,3.85-2.74c0.22-0.83,0.77-1.24,1.66-1.22C244.22,332.18,245.62,331.58,246.99,330.38z"/>
<path class="st0" d="M350.65,350.84c5.77,2.74,12.73,3.53,20.88,2.3c1.49-1.22,2.48-1.52,2.96-0.88c1.23,1.61,0.53,3.87-1.4,4.63
	c-5.63,2.19-4.04,12.65-6.83,18.32l-6.38,0.69c-0.75,0.07-1.06,0.46-0.99,1.18l0.84,8.06c0.72,8.53-0.67,18.82-4.19,30.92
	c-3.54,13.92-9.67,27.33-18.38,40.25c-8.64,11.64-18.53,20.88-29.72,27.72c-13.23,8.64-27.41,12.72-42.54,12.28
	c-3.83-5.6-5.51-11.57-5.03-17.95c0.07-0.81-0.31-1.34-1.13-1.59c-0.91-0.3-21.61-8.09-14.44-10.3
	c42.71,23.92,89.15-8.94,107.48-46.59c3.87-21.04-1.49-39.38-16.14-55.05c-0.55-0.6-0.75-1.29-0.58-2.05l2.05-9.91l3.46-8.85
	c0.31-0.81,0.82-0.94,1.52-0.37L350.65,350.84z"/>
<path class="st1" d="M247.33,380.82c1.2,3.85,1.23,8,0.07,12.4c-0.22,0.76-0.22,1.54,0,2.3l2.72,10.09
	c-3.54,8.09-4.23,17.58-15.23,18.8c-8.33,0.41-12.42-5.55-16.41-10.53c-0.65-0.81-1.15-0.76-1.56,0.18l-4.35,10
	c-4.69,7.58-11.93,12.17-21.78,13.8l-10.44,0.02c-1.01,0-1.4-0.46-1.18-1.41l3.99-16.59l0.72-2.51c0.22-0.81,0.79-1.24,1.68-1.29
	l14.27-0.55c5.17-1.31,9.72-3.71,13.59-7.19c0.65-0.6,0.7-1.24,0.14-1.91c-8.85-10.62-10.2-21.68-4.07-33.2
	c0.41-1.54,0.65-2.35,0.72-2.47c1.42-2.33,2.77-2.28,3.99,0.14c6.47,12.83,10.42,28.64,26.23,32.56c2.62,0.65,5.03-1.64,4.38-4.15
	C243.21,393.1,244.06,386.92,247.33,380.82z"/>
<path class="st0" d="M273.72,388.95l2.12,0.35c-1.83,5.6-7.15,6.27-15.93,2.03c-0.94-0.44-1.37-0.16-1.35,0.83l0.63,17.79
	c-3.59-0.32-6.59-1.77-9.07-4.33l-2.72-10.09c-0.22-0.76-0.22-1.54,0-2.3c1.15-4.4,1.13-8.55-0.07-12.4
	c0.1-2.14,0.72-3.89,1.85-5.23c0.6-0.71,1.06-0.65,1.4,0.21C254.35,385.52,262.05,389.9,273.72,388.95z"/>
<path class="st0" d="M129.98,406.88c0.75-0.02,1.15,0.3,1.23,1.01c0.07,0.81-0.22,1.43-0.91,1.89l-4.19,2.79
	c-0.77,0.53-1.08,1.22-0.96,2.12l1.78,12.93c-23.44,9.06-48.22,12.37-74.37,9.91c-4.76-5.21-5.53-12.7-2.29-22.47
	C77.96,418.86,104.53,416.14,129.98,406.88z"/>
<path class="st1" d="M296.39,417.69l1.83,12.35c-0.77,2.26-2.55,4.68-5.32,7.26c-3.71,3.34-7.87,4.95-12.51,4.84
	c-0.94-0.02-1.32-0.48-1.15-1.38l2.89-13.55l1.42-5.09c0.22-0.76,0.72-1.24,1.52-1.45L296.39,417.69z"/>
<path class="st2" d="M244.32,466.49c-7.17,2.21,13.52,10,14.44,10.3c0.82,0.25,1.2,0.78,1.13,1.59c-0.48,6.38,1.2,12.35,5.03,17.95
	c-18.17-0.97-32.15-8.2-41.99-21.73c-0.51-0.69-0.67-1.45-0.53-2.26l3.68-19.17l0.94-0.9c0.55-0.53,1.11-0.51,1.61,0.09
	C233.16,457.73,238.38,462.45,244.32,466.49z"/>
</svg>
